<?xml version="1.0" encoding="utf-8"?>
<!-- Generator: Adobe Illustrator 26.0.0, SVG Export Plug-In . SVG Version: 6.00 Build 0)  -->
<svg version="1.1" id="Layer_18" xmlns="http://www.w3.org/2000/svg" xmlns:xlink="http://www.w3.org/1999/xlink" x="0px" y="0px"
	 viewBox="0 0 293.6 226" style="enable-background:new 0 0 293.6 226;" xml:space="preserve">
<style type="text/css">
	.st0{fill:#E8505B;}
	.st1{fill:#E8505B;}
	.st2{fill:#282B33;}
	.st3{fill:#26272B;}
	.st4{fill:#6c9fff;}
	.st5{fill:#FFFFFF;}
	.st6{fill:#94baff;}
	.st7{fill:#404449;}
</style>
<g>
	<g>
		<g>
			<polygon class="st0" points="184.5,174.7 183.7,176.5 181.9,196.5 257.4,195.7 230.4,174.7 			"/>
		</g>
		<g>
			<polygon class="st1" points="159.9,33.7 114.8,23.1 116.6,32.8 114.6,40.6 117.8,39.9 119.7,48.8 			"/>
		</g>
		<g>
			<polygon class="st0" points="150.3,33.7 116.6,32.8 114.6,40.6 117.8,39.9 117.2,36.4 			"/>
		</g>
		<g>
			<rect x="18.7" y="190.7" class="st2" width="256.9" height="9"/>
		</g>
		<g>
			<path class="st3" d="M243.8,99.5c-2.5-3.3-7.7,0.6-7.6-3.1c0.1-3.6-0.5-9.9-5.7-10.5c-5.2-0.6-6.1-0.2-11.1-10.2
				s-17.7-13-17.7-13c-26-7.5-28.8,9.8-27.6,13.7c1.2,3.9-1.7,5.2-2.9,6.1c-1.2,0.9-2.9,3-1.6,7c1.3,3.9,0.7,5.9-2.2,9.6
				c-2.9,3.7,2.3,5-0.6,7.4c-2.9,2.4-0.5,8.2-0.5,8.2c36.1,14.5,53.4,6.1,55.5,2.5c2-3.6,6.1,0.2,6.1,0.2
				C247.1,117.1,246.3,102.8,243.8,99.5z M230.9,89.6c-2.1-1-7.5-1.7-8-5c0,0,1.1,1.8,5.2,2.5c4.1,0.6,6.4,1.2,6.8,8.2
				C234.9,95.2,233.1,90.6,230.9,89.6z M242.8,106.4c0.7-6.1-3-6.7-3-6.7C246.4,100.5,242.8,106.4,242.8,106.4z"/>
		</g>
		<g>
			<path class="st1" d="M269,166.6c0,0-12.1-22.9-21.1-37.9c-8.4-14-22.8-13.6-24.4-13.5c-1.8,1.8-3.1,4.1-10.5,4.3
				c-8.6,0.2-13.5-4.5-15.3-6.6c-8.1-0.6-16-1.1-20.3-1.3c-11.6-0.5-21.5,11-22.2,13c-0.7,2-7.2,15.1-7.2,15.1l15.3,42.1l6.5-11.5
				c6.6,3.4,11.4,1.6,11.4,1.6l2.5,4.7h45.6l2.3,6.1c0,0,3.9,2.1,10,5.2c6.1,3.1,10.8,2.9,10.8,2.9C274.6,189.5,269,166.6,269,166.6
				z"/>
		</g>
		<g>
			<path class="st4" d="M70.5,139.8l14.5,41c0.6,1.8,2.4,3.1,4.3,3.1h6.1v2.9c0,2.2,1.8,4,4,4h99.8c2.8,0,5.1-2.3,5.1-5.1v-1.8
				c0-1.6-1.3-2.9-2.9-2.9h-34.6l-16.2-44.5c-0.8-2.1-2.7-3.5-4.9-3.5H75.3C71.8,133,69.3,136.5,70.5,139.8z"/>
		</g>
		<g>
			
				<ellipse transform="matrix(0.6634 -0.7482 0.7482 0.6634 -83.549 141.8145)" class="st5" cx="115.9" cy="163.8" rx="3.9" ry="5.8"/>
		</g>
		<g>
			<path class="st5" d="M169.8,170.8c-0.1,0-0.3,0-0.4-0.1c-16.1-14.2-7.1-29.6-5.3-32.3l-2.9-2.9c-0.2-0.2-0.2-0.6,0-0.8
				c0.2-0.2,0.6-0.2,0.8,0l3.6,3.6l-0.3,0.4c-0.5,0.7-11.9,16.3,4.9,31.2c0.2,0.2,0.3,0.6,0,0.8
				C170.1,170.7,169.9,170.8,169.8,170.8z"/>
		</g>
		<g>
			<path class="st5" d="M227.5,152.8c-0.2,0-0.4-0.1-0.5-0.4c-1.7-4.2-7.8-16.5-7.9-16.6c-0.1-0.3,0-0.6,0.3-0.8
				c0.3-0.1,0.6,0,0.8,0.3c0.1,0.1,6.2,12.4,7.9,16.7c0.1,0.3,0,0.6-0.3,0.7C227.6,152.8,227.5,152.8,227.5,152.8z"/>
		</g>
		<g>
			<path class="st5" d="M253.5,154.8C253.4,154.8,253.4,154.8,253.5,154.8l-15.3-1.1c-0.3,0-0.5-0.3-0.5-0.6c0-0.3,0.3-0.5,0.6-0.5
				l15.3,1.1c0.3,0,0.5,0.3,0.5,0.6C254,154.6,253.8,154.8,253.5,154.8z"/>
		</g>
		<g>
			<path class="st5" d="M193.3,141.5c-6.9,1.1-10.6,4.5-14.7,10.2c-4.1,5.8-4.8,12.6-0.1,12.2c2.9-0.3,6.8-5.9,7.5-7.2
				c0-0.1,0.1-0.1,0.2,0c0.7,1.9,5.8,15.2,19.1,9.7c0,0,1,4.6,7.3,2.8l18.9,13.3c0,0,9.4-1.8,12.7-12.3s-6-17.2-6-17.2
				s-25.3-1.9-32.5-7C205.7,146.1,196.9,140.9,193.3,141.5z"/>
			<path class="st3" d="M231.4,182.9l-18.9-13.3c-2.2,0.6-4.1,0.5-5.5-0.3c-1.3-0.8-1.8-1.9-2-2.4c-3.9,1.6-7.5,1.6-10.7,0.2
				c-5.1-2.3-7.6-7.9-8.3-9.8c-1,1.7-4.6,6.7-7.5,7c-1.7,0.2-2.6-0.6-3-1.3c-1.3-2.3-0.1-7,2.9-11.3c4-5.7,7.7-9.2,14.9-10.3
				c3.6-0.6,12.2,4.4,12.6,4.6c7.1,5,32.1,6.9,32.4,6.9l0.1,0l0.1,0c0.1,0.1,9.5,7,6.1,17.5c-3.3,10.5-12.8,12.5-12.9,12.5
				L231.4,182.9z M212.6,168.9l0.1,0.1l18.8,13.3c1.1-0.3,9.3-2.5,12.4-12.1c3.1-9.7-5-16.2-5.8-16.8c-1.9-0.1-25.5-2-32.6-7
				c-0.1,0-8.7-5.1-12.2-4.5c-7,1.1-10.6,4.5-14.5,10.1c-2.8,4-4,8.6-2.8,10.7c0.5,0.8,1.3,1.2,2.4,1c2.7-0.3,6.6-5.7,7.3-7
				c0.1-0.1,0.2-0.2,0.4-0.2c0.2,0,0.3,0.1,0.3,0.3c0.4,1.2,2.8,7.4,8.2,9.8c3.1,1.4,6.6,1.3,10.5-0.3l0.3-0.1l0.1,0.3
				c0,0,0.4,1.5,1.8,2.4c1.3,0.8,3,0.8,5.2,0.2L212.6,168.9z"/>
		</g>
		<g>
			<path class="st3" d="M186.1,156.8C186.1,156.8,186,156.8,186.1,156.8c-0.2,0-0.3-0.2-0.3-0.3c1.9-7.8,7.2-9.6,7.4-9.7
				c0.1,0,0.3,0,0.4,0.2c0,0.1,0,0.3-0.2,0.4c-0.1,0-5.2,1.8-7.1,9.3C186.3,156.7,186.2,156.8,186.1,156.8z"/>
		</g>
		<g>
			<path class="st3" d="M190.7,164.4C190.7,164.4,190.7,164.4,190.7,164.4c-0.2,0-0.3-0.1-0.3-0.3c0.1-10.6,7.5-13.2,7.5-13.2
				c0.1,0,0.3,0,0.4,0.2s0,0.3-0.2,0.4c-0.1,0-7,2.5-7.2,12.7C191,164.2,190.9,164.4,190.7,164.4z"/>
		</g>
		<g>
			<path class="st3" d="M195.9,164C195.9,164,195.9,164,195.9,164c-0.2,0-0.3-0.1-0.3-0.2c1.4-6.8,6.3-8.2,6.5-8.2
				c0.1,0,0.3,0,0.4,0.1c0.1,0.1,0,0.2-0.2,0.3c0,0-4.8,1.3-6.2,7.9C196.2,164,196.1,164,195.9,164z"/>
		</g>
		<g>
			<path class="st3" d="M205.2,166.6c-0.1,0-0.2-0.1-0.3-0.2c0-0.1,0-0.3,0.2-0.4c1.6-0.5,1.8-1.3,1.9-1.8c0-0.5-0.3-0.9-0.5-1
				c-0.2-0.1-0.8,0.1-1.2,0.3c-0.8,0.3-1.4,0.5-1.8,0.2c-0.2-0.2-0.3-0.4-0.2-0.8c0.3-1.6,4.4-3.1,4.9-3.2c0.1-0.1,0.3,0,0.4,0.2
				c0.1,0.1,0,0.3-0.2,0.4c-1.7,0.6-4.4,1.8-4.5,2.8c0,0.2,0,0.2,0,0.2c0.1,0.1,0.9-0.1,1.3-0.3c0.7-0.2,1.3-0.4,1.6-0.3
				c0.5,0.2,0.8,0.9,0.8,1.6C207.5,164.9,207.2,166,205.2,166.6C205.3,166.6,205.3,166.6,205.2,166.6z"/>
		</g>
		<g>
			<path class="st5" d="M200,63.8c0,0-8.3,7.2-5.9,14.7s3.5,6.7,0.8,11.4c-2.7,4.7-1.7,6.6,0.4,9.4c2.1,2.8,3.5,4.3,2.1,8.8
				c-1.4,4.4,3.2,9,8.3,10.4c0,0-24.6,6.3-28.3-6.9c0,0,12.2-0.2,12.5-3.5c0.3-3.3-2.9-7.5-2.9-7.5s-10.5-0.8-12.1-10.1
				c-1.6-9.3,4.4-13.6,5.1-16.2S187.3,60.9,200,63.8z"/>
		</g>
		<g>
			<path class="st5" d="M205.7,81c0,0,4.8-0.2,5.3,4.9c0.5,5.1-5.3,6.5-5.3,6.5s1.3-3.3,1-4.8C206.4,86.1,205,81.9,205.7,81z"/>
		</g>
		<g>
			<path class="st3" d="M179.5,80.4c-0.2,0-0.3-0.1-0.4-0.3c-0.5-1.2-0.7-1.9-0.4-2.5c0.3-0.6,0.9-0.9,2.1-1.3
				c0.3-0.1,0.7-0.3,1.1-0.4c2.8-1.1,4-4.5,4-4.6c0.1-0.2,0.3-0.3,0.5-0.2c0.2,0.1,0.3,0.3,0.2,0.5c-0.1,0.2-1.4,3.8-4.5,5.1
				c-0.4,0.2-0.8,0.3-1.2,0.4c-0.9,0.3-1.5,0.5-1.6,0.9c-0.1,0.3,0,0.8,0.4,1.9c0.1,0.2,0,0.4-0.2,0.5
				C179.6,80.4,179.6,80.4,179.5,80.4z"/>
		</g>
		<g>
			<path class="st3" d="M180.2,84.9c-0.6,0-1.2-0.2-1.8-0.5c-0.8-0.5-0.8-1.5-0.8-1.5c0-0.2,0.2-0.4,0.4-0.4c0.2,0,0.4,0.2,0.4,0.4
				l0,0c0,0,0,0.6,0.4,0.9c1.1,0.7,2.3,0.3,3.2-0.1c0.4-0.2,1.1-0.7,1.6-1.4c0.1-0.2,0.4-0.2,0.6,0c0.2,0.1,0.2,0.4,0,0.6
				c-0.6,0.7-1.4,1.3-1.9,1.6C181.6,84.7,180.9,84.9,180.2,84.9z M178.5,82.9L178.5,82.9L178.5,82.9z"/>
		</g>
		<g>
			<path class="st3" d="M190.2,70.8c0,0,2.2-2.6,6.2-0.9l-0.4,1.3C196,71.1,191.8,69.8,190.2,70.8z"/>
		</g>
		<g>
			<path class="st3" d="M184.1,66.8c0,0,2.9,1.6,2.6,3.7c0,0-2.4-2.1-3.5-2C182.1,68.7,184.1,66.8,184.1,66.8z"/>
		</g>
		<g>
			<ellipse transform="matrix(0.5 -0.866 0.866 0.5 28.9872 204.0938)" class="st3" cx="191.2" cy="76.9" rx="2" ry="1.4"/>
		</g>
		<g>
			<ellipse transform="matrix(0.5 -0.866 0.866 0.5 26.7133 194.6388)" class="st3" cx="181.9" cy="74.2" rx="1.7" ry="0.9"/>
		</g>
		<g>
			<path class="st3" d="M197.4,167.5c0,0-0.1,0-0.1,0c0,0-2.2-1.3-1.6-3.7c0-0.2,0.2-0.2,0.3-0.2c0.2,0,0.2,0.2,0.2,0.3
				c-0.4,2,1.3,3,1.4,3.1c0.1,0.1,0.2,0.3,0.1,0.4C197.6,167.4,197.5,167.5,197.4,167.5z"/>
		</g>
		<g>
			<g>
				<path class="st6" d="M44.4,163l-0.7-0.2c6.3-21.6-7.9-39.7-8.1-39.9l0.6-0.5C36.4,122.6,50.8,141,44.4,163z"/>
			</g>
			<g>
				<path class="st6" d="M50,163.9l-0.7-0.1c1.7-16.3,17.8-31.3,17.9-31.4l0.5,0.5C67.5,133.1,51.7,147.9,50,163.9z"/>
			</g>
			<g>
				<path class="st6" d="M47.2,163.5c-4-7.3-9.3-10.6-13-12.1c-4.1-1.6-7.3-1.4-7.3-1.4l0-0.7c0.1,0,13.2-0.6,21,13.9L47.2,163.5z"
					/>
			</g>
			<g>
				<path class="st6" d="M40,164.3c-0.5-9.3,6-26.3,6.3-27l0.7,0.3c-0.1,0.2-6.7,17.6-6.2,26.7L40,164.3z"/>
			</g>
			<g>
				
					<ellipse transform="matrix(0.9792 -0.2028 0.2028 0.9792 -26.0761 13.6283)" class="st6" cx="53.5" cy="134" rx="9.8" ry="6.3"/>
			</g>
			<g>
				<ellipse transform="matrix(0.866 -0.5 0.5 0.866 -58.0775 31.5991)" class="st6" cx="29.9" cy="124.2" rx="7.9" ry="5.2"/>
			</g>
			<g>
				<ellipse transform="matrix(0.6427 -0.7661 0.7661 0.6427 -109.0975 73.311)" class="st6" cx="24" cy="153.6" rx="6.2" ry="4"/>
			</g>
			<g>
				
					<ellipse transform="matrix(0.7885 -0.615 0.615 0.7885 -68.4775 73.7116)" class="st6" cx="72.9" cy="136.4" rx="5.5" ry="7.9"/>
			</g>
			<g>
				<ellipse class="st6" cx="60.6" cy="150.2" rx="7.1" ry="6.8"/>
			</g>
			<g>
				
					<ellipse transform="matrix(0.7885 -0.615 0.615 0.7885 -66.7462 71.9929)" class="st7" cx="71.3" cy="133.1" rx="1.3" ry="2.4"/>
			</g>
			<g>
				<ellipse transform="matrix(0.7885 -0.615 0.615 0.7885 -77.5828 67.296)" class="st7" cx="59.1" cy="146.5" rx="1.3" ry="1.7"/>
			</g>
			<g>
				<ellipse transform="matrix(0.8423 -0.539 0.539 0.8423 -59.652 37.9381)" class="st7" cx="35" cy="120.9" rx="1.7" ry="1.3"/>
			</g>
			<g>
				
					<ellipse transform="matrix(0.8423 -0.539 0.539 0.8423 -76.6572 37.8904)" class="st7" cx="26.4" cy="149.9" rx="1.7" ry="1.3"/>
			</g>
			<g>
				
					<ellipse transform="matrix(0.9001 -0.4356 0.4356 0.9001 -51.1953 35.3569)" class="st7" cx="51.5" cy="129.3" rx="1.8" ry="1.3"/>
			</g>
			<g>
				<rect x="34.7" y="186.5" class="st2" width="23.3" height="4.8"/>
			</g>
			<g>
				<path class="st4" d="M34.1,162.6l-4.5,19.5c-0.6,2.7,1.4,5.3,4.2,5.3h25c2.8,0,4.8-2.6,4.2-5.3l-4.3-19.6H34.1z"/>
			</g>
		</g>
	</g>
	<g>
		<g>
			<path class="st1" d="M109.6,40.4l-0.5-0.6c0.9-0.8,1.4-1.3,1.4-1.3l0.6,0.6C111.1,39.1,110.6,39.6,109.6,40.4z"/>
		</g>
		<g>
			<path class="st1" d="M95.1,132c-1.3-0.3-2.6-0.5-3.9-0.9l0.2-0.8c1.2,0.3,2.6,0.6,3.9,0.8L95.1,132z M87.3,130.1
				c-1.3-0.4-2.6-0.8-3.8-1.3l0.3-0.8c1.2,0.4,2.5,0.9,3.7,1.3L87.3,130.1z M79.8,127.3c-1.2-0.6-2.4-1.2-3.6-1.8l0.4-0.7
				c1.1,0.6,2.3,1.2,3.5,1.8L79.8,127.3z M72.8,123.4c-1.1-0.8-2.2-1.6-3.2-2.5l0.6-0.6c1,0.8,2,1.7,3.1,2.4L72.8,123.4z
				 M66.8,118.1c-0.9-1-1.7-2.1-2.5-3.2l0.7-0.5c0.7,1.1,1.5,2.1,2.4,3.1L66.8,118.1z M87.6,113.7c-1.1,0-2.2-0.1-3.3-0.2l0.1-0.8
				c1.3,0.2,2.6,0.3,3.9,0.2l0,0.8C88.2,113.7,87.9,113.7,87.6,113.7z M92.4,113.2l-0.2-0.8c1.3-0.3,2.5-0.8,3.6-1.4l0.4,0.7
				C95.1,112.3,93.8,112.8,92.4,113.2z M80.4,112.7c-1.2-0.4-2.5-0.8-3.8-1.3l0.3-0.8c1.2,0.5,2.5,1,3.7,1.3L80.4,112.7z
				 M62.3,111.4c-0.6-1.2-1.1-2.5-1.5-3.8l0.8-0.3c0.4,1.2,0.9,2.5,1.4,3.6L62.3,111.4z M73,109.6c-1.2-0.6-2.3-1.3-3.5-2l0.5-0.7
				c1.1,0.7,2.3,1.4,3.4,2L73,109.6z M99.6,109.4l-0.6-0.6c0.9-0.8,1.8-1.8,2.7-2.8l0.7,0.5C101.5,107.5,100.6,108.5,99.6,109.4z
				 M66.2,105.3c-1.1-0.9-2.1-1.7-3.1-2.6l0.6-0.6c0.9,0.9,1.9,1.7,3,2.6L66.2,105.3z M59.9,103.7c-0.2-1.3-0.3-2.7-0.4-4l0.8,0
				c0,1.3,0.1,2.6,0.4,3.9L59.9,103.7z M104.6,103.1l-0.7-0.4c0.1-0.2,0.3-0.5,0.4-0.7c0.5-0.9,0.9-1.9,1.2-2.8l0.8,0.3
				c-0.4,1-0.8,2-1.3,2.9C104.9,102.5,104.7,102.8,104.6,103.1z M60.5,99.6c-0.7-1-1.4-2.1-2.2-3.4l0.7-0.4c0.7,1.2,1.5,2.4,2.1,3.3
				L60.5,99.6z M60.5,95.7l-0.8-0.1c0.1-1.3,0.4-2.7,0.7-4l0.8,0.2C60.9,93.1,60.7,94.4,60.5,95.7z M107.3,95.4l-0.8-0.1
				c0.1-0.9,0.2-1.8,0.2-2.7c0-0.4,0-0.8,0-1.2l0.8-0.1c0,0.4,0,0.8,0,1.2C107.5,93.5,107.4,94.5,107.3,95.4z M56.4,92.7
				c-0.6-1.2-1.2-2.4-1.8-3.6l0.8-0.4c0.6,1.2,1.2,2.4,1.7,3.6L56.4,92.7z M62.3,88.1l-0.8-0.3c0.4-1.3,1-2.5,1.5-3.7l0.8,0.4
				C63.2,85.6,62.7,86.8,62.3,88.1z M106,87.6c-0.4-1.2-0.9-2.4-1.5-3.6l0.7-0.4c0.6,1.2,1.2,2.5,1.5,3.8L106,87.6z M53,85.4
				c-0.5-1.2-1-2.5-1.5-3.7l0.8-0.3c0.4,1.2,0.9,2.5,1.4,3.7L53,85.4z M65.7,81L65,80.5c0.7-1.2,1.6-2.3,2.4-3.2l0.6,0.6
				C67.2,78.8,66.4,79.9,65.7,81z M102.3,80.8c-0.8-1-1.7-2-2.7-2.8l0.6-0.6c1,0.9,2,1.9,2.8,2.9L102.3,80.8z M50.3,77.9
				c-0.4-1.3-0.8-2.6-1.1-3.9l0.8-0.2c0.3,1.2,0.7,2.5,1.1,3.8L50.3,77.9z M96.5,75.6c-1.1-0.7-2.2-1.3-3.4-1.9l0.3-0.8
				c1.2,0.6,2.4,1.2,3.6,1.9L96.5,75.6z M70.8,75.1l-0.5-0.7c1.1-0.9,2.3-1.7,3.4-2.2l0.3,0.8C73,73.5,71.9,74.2,70.8,75.1z
				 M89.4,72.3c-1.3-0.4-2.6-0.6-3.8-0.8l0.1-0.8c1.3,0.2,2.7,0.4,4,0.8L89.4,72.3z M77.8,71.9L77.6,71c1.3-0.3,2.7-0.4,4-0.5l0,0.8
				C80.3,71.5,79,71.6,77.8,71.9z M48.3,70.1c-0.3-1.4-0.5-2.7-0.6-4l0.8-0.1c0.1,1.2,0.3,2.5,0.6,3.9L48.3,70.1z M48.4,62.1l-0.8,0
				c0-1.5,0.2-2.8,0.5-4l0.8,0.2C48.6,59.4,48.4,60.7,48.4,62.1z M50.4,54.7l-0.7-0.5c0.8-1.2,1.9-2.1,3.1-2.7l0.4,0.8
				C52,52.8,51.1,53.7,50.4,54.7z M74.7,53.4c-0.7,0-1.5,0-2.2,0l0-0.8c1.3,0.1,2.7,0.1,3.9,0l0,0.8C76,53.4,75.3,53.4,74.7,53.4z
				 M80.6,53.1l-0.1-0.8c1.3-0.2,2.6-0.4,3.9-0.6l0.2,0.8C83.2,52.7,81.9,52.9,80.6,53.1z M68.5,53c-1.3-0.2-2.7-0.4-4-0.6l0.2-0.8
				c1.3,0.3,2.6,0.5,3.9,0.6L68.5,53z M60.7,51.6c-1-0.2-2-0.3-3-0.3c0,0,0,0,0,0c-0.3,0-0.6,0-0.9,0l-0.1-0.8c0.3,0,0.6,0,1,0
				c0,0,0,0,0,0c1,0,2,0.1,3.1,0.3L60.7,51.6z M88.4,51.5l-0.2-0.8c1.3-0.3,2.5-0.8,3.8-1.2l0.3,0.8C91,50.8,89.7,51.2,88.4,51.5z
				 M96,48.8l-0.3-0.8c1.2-0.5,2.4-1.1,3.6-1.7l0.4,0.7C98.4,47.7,97.2,48.3,96,48.8z M103.1,45.1l-0.4-0.7c1.1-0.7,2.2-1.4,3.3-2.2
				l0.5,0.7C105.4,43.7,104.2,44.4,103.1,45.1z"/>
		</g>
		<g>
			<path class="st1" d="M101.1,133c-0.7-0.1-1.3-0.2-2-0.3l0.1-0.8c0.6,0.1,1.3,0.2,1.9,0.3L101.1,133z"/>
		</g>
	</g>
</g>
</svg>
